<svg xmlns="http://www.w3.org/2000/svg" xmlns:xlink="http://www.w3.org/1999/xlink" width="32" height="33"
    viewBox="0 0 32 33" fill="none">
    <g opacity="1" transform="translate(0 0)  rotate(0)">
        <path id="Rectangle" fill-rule="evenodd" style="fill:#F7A647" opacity="1"
            d="M10 32.8723L22 32.8723C27.52 32.8723 32 28.3923 32 22.8723L32 10.8723C32 5.35231 27.52 0.872314 22 0.872314L10 0.872314C4.48 0.872314 0 5.35231 0 10.8723L0 22.8723C0 28.3923 4.48 32.8723 10 32.8723Z">
        </path>
        <path id="Shape" fill-rule="evenodd" style="fill:#FFFFFF" opacity="1"
            d="M8.13,12.6c-0.28,-0.71 -0.11,-1.5 0.43,-2.04c0.54,-0.54 1.33,-0.71 2.04,-0.43l10.54,4.15c0.79,0.31 1.37,1 1.54,1.83c0.17,0.83 -0.08,1.69 -0.68,2.3l-1.89,1.89l2.52,2.51c0.5,0.51 0.49,1.32 -0.01,1.82c-0.24,0.24 -0.56,0.37 -0.9,0.37c-0.34,0 -0.66,-0.13 -0.91,-0.37l-2.51,-2.52l-1.89,1.89c-0.48,0.47 -1.12,0.73 -1.78,0.73c-0.18,0 -0.35,-0.01 -0.52,-0.05c-0.83,-0.17 -1.52,-0.75 -1.83,-1.54zM9.8273,11.9371l4.14,10.53c0.09,0.23 0.28,0.39 0.51,0.43l0.15,0.02c0.18,0 0.36,-0.07 0.49,-0.21l3.18,-3.17l-0.12,0.12l-0.64,0.64l1.1642,1.1642h-1.0486l0.64,0.65l0.5293,-0.5293l2.5151,2.5151c-0.21,-0.21 -0.21,-0.55 0,-0.76c0.1,-0.1 0.24,-0.15 0.38,-0.15c0.14,0 0.28,0.05 0.38,0.15l-3.8,-3.8l2.41,-2.42c0.17,-0.16 0.24,-0.4 0.19,-0.64c-0.04,-0.23 -0.2,-0.42 -0.42,-0.51l-10.54,-4.14l-0.09,0.02zM18.8222,21.582l-0.1207,-0.1207h0.2414z">
        </path>
    </g>
</svg>