<svg xmlns="http://www.w3.org/2000/svg" xmlns:xlink="http://www.w3.org/1999/xlink" width="32" height="32"
    viewBox="0 0 32 32" fill="none">
    <g opacity="1" transform="translate(0 0)  rotate(0)">
        <path id="Rectangle" fill-rule="evenodd" style="fill:#1FCABC" opacity="1"
            d="M10 32L22 32C27.52 32 32 27.52 32 22L32 10C32 4.48 27.52 0 22 0L10 0C4.48 0 0 4.48 0 10L0 22C0 27.52 4.48 32 10 32Z">
        </path>
        <g opacity="1" transform="translate(8 8)  rotate(0)">
            <g opacity="1" transform="translate(6.22216796875 5.3333740234375)  rotate(0)">
                <path id="Oval" fill-rule="evenodd" style="fill:#FFFFFF" opacity="1"
                    d="M3.56 4.44663C3.56 3.46663 2.76 2.66663 1.78 2.66663C0.8 2.66663 0 3.46663 0 4.44663C0 5.42663 0.8 6.22663 1.78 6.22663C2.76 6.22663 3.56 5.42663 3.56 4.44663Z">
                </path>
                <path id="Rectangle" fill-rule="evenodd" style="fill:#FFFFFF" opacity="1"
                    d="M1.77892 4.44L1.77892 4.44C2.26892 4.44 2.66892 4.05 2.66892 3.56L2.66892 0.89C2.66892 0.65 2.57892 0.43 2.40892 0.26C2.23892 0.09 2.01892 0 1.77892 0L1.77892 0C1.53892 0 1.31892 0.09 1.14892 0.26C0.978916 0.43 0.888916 0.65 0.888916 0.89L0.888916 3.56C0.888916 4.05 1.28892 4.44 1.77892 4.44Z">
                </path>
            </g>
            <path id="Path" style="fill:#FFFFFF; opacity:1;"
                d="M1.77778,8c0,3.4364 2.78578,6.2222 6.22222,6.2222c3.4364,0 6.2222,-2.7858 6.2222,-6.2222c0,-3.43644 -2.7858,-6.22222 -6.2222,-6.22222c-3.43644,0 -6.22222,2.78578 -6.22222,6.22222zM-1.77778,8c0,-5.40012 4.37766,-9.77778 9.77778,-9.77778c5.4001,0 9.7778,4.37766 9.7778,9.77778c0,5.4001 -4.3777,9.7778 -9.7778,9.7778c-5.40012,0 -9.77778,-4.3777 -9.77778,-9.7778z">
            </path>
        </g>
    </g>
</svg>