<svg xmlns="http://www.w3.org/2000/svg" xmlns:xlink="http://www.w3.org/1999/xlink" width="40" height="40"
    viewBox="0 0 32 32" fill="none">
    <g opacity="1" transform="translate(0 0)  rotate(0)">
        <g id="undefined" filter="url(#filter_0)"></g>
        <path id="Rectangle" fill-rule="evenodd" style="fill:#165DFF" opacity="1"
            d="M10 32L22 32C27.52 32 32 27.52 32 22L32 10C32 4.48 27.52 0 22 0L10 0C4.48 0 0 4.48 0 10L0 22C0 27.52 4.48 32 10 32Z">
        </path>
        <g opacity="1" transform="translate(7 7)  rotate(0)">
            <g opacity="1" transform="translate(0 0)  rotate(0)">
                <path id="路径" fill-rule="evenodd" style="fill:#FFFFFF" opacity="1"
                    d="M12.0746 10.9408L12.0746 10.9008C12.0746 10.7008 11.9046 10.5408 11.7046 10.5408L9.76465 10.5408L9.76465 9.00077L11.7046 9.00077C11.9146 9.00077 12.0746 8.84077 12.0746 8.63077L12.0746 8.60077C12.0746 8.39077 11.9146 8.23077 11.7046 8.23077L9.76465 8.23077L11.9546 5.74077C12.1546 5.51077 11.9946 5.15077 11.6846 5.16077L11.0846 5.16077C10.9846 5.16077 10.8846 5.20077 10.8146 5.28077L9.27465 7.04077C9.12465 7.21077 8.87465 7.21077 8.72465 7.04077L7.18465 5.28077C7.11465 5.20077 7.01465 5.16077 6.91465 5.16077L6.31465 5.16077C6.01465 5.16077 5.85465 5.52077 6.05465 5.74077L8.23465 8.23077L6.29465 8.23077C6.08465 8.23077 5.92465 8.39077 5.92465 8.60077L5.92465 8.63077C5.92465 8.84077 6.08465 9.00077 6.29465 9.00077L8.23465 9.00077L8.23465 10.5408L6.29465 10.5408C6.09465 10.5408 5.92465 10.7008 5.92465 10.9008L5.92465 10.9408C5.92465 11.1408 6.09465 11.3008 6.29465 11.3008L8.23465 11.3008L8.23465 13.2408C8.23465 13.4408 8.39465 13.6108 8.59465 13.6108L9.40465 13.6108C9.60465 13.6108 9.76465 13.4408 9.76465 13.2408L9.76465 11.3008L11.7046 11.3008C11.9046 11.3008 12.0746 11.1408 12.0746 10.9408Z">
                </path>
                <path id="路径" style="fill:#FFFFFF; opacity:1;"
                    d="M11.9746,10.9408v-0.04c0,-0.07107 -0.02643,-0.13207 -0.0793,-0.183c-0.05333,-0.05133 -0.1169,-0.077 -0.1907,-0.077h-2.03995v-1.74003h2.03995c0.0774,0 0.14177,-0.02565 0.1931,-0.07696c0.05127,-0.05131 0.0769,-0.11565 0.0769,-0.19304v-0.03c0,-0.07739 -0.02563,-0.14173 -0.0769,-0.19304c-0.05133,-0.05131 -0.1157,-0.07696 -0.1931,-0.07696h-2.16108l2.33608,-2.65605c0.07207,-0.08289 0.08553,-0.17367 0.0404,-0.27235c-0.04487,-0.09798 -0.12223,-0.1452 -0.2321,-0.14166l-0.0016,0.00006h-0.6017c-0.07973,0 -0.14463,0.02862 -0.1947,0.08585l-1.53999,1.76c-0.09509,0.10777 -0.21185,0.16165 -0.35026,0.16165c-0.13842,0 -0.25508,-0.05378 -0.34999,-0.16134l-1.54027,-1.76031c-0.05008,-0.05723 -0.11499,-0.08585 -0.19474,-0.08585h-0.6c-0.10663,0 -0.18203,0.04943 -0.2262,0.14829c-0.04399,0.09844 -0.03059,0.18659 0.04019,0.26444l2.32647,2.65727h-2.16046c-0.07739,0 -0.14173,0.02565 -0.19304,0.07696c-0.05131,0.05131 -0.07696,0.11565 -0.07696,0.19304v0.03c0,0.07739 0.02565,0.14173 0.07696,0.19304c0.05131,0.05131 0.11565,0.07696 0.19304,0.07696h2.04v1.74003h-2.04c-0.07376,0 -0.13731,0.02567 -0.19064,0.077c-0.05291,0.05093 -0.07936,0.11193 -0.07936,0.183v0.04c0,0.071 0.02645,0.13197 0.07936,0.1829c0.05333,0.0514 0.11688,0.0771 0.19064,0.0771h2.04v2.04c0,0.07373 0.02568,0.13727 0.07703,0.1906c0.05095,0.05293 0.11194,0.0794 0.18297,0.0794h0.81c0.07103,0 0.13202,-0.02647 0.18297,-0.0794c0.05135,-0.05333 0.07703,-0.11687 0.07703,-0.1906v-2.04h2.03995c0.0738,0 0.13737,-0.0257 0.1907,-0.0771c0.05287,-0.05093 0.0793,-0.1119 0.0793,-0.1829zM12.1746,10.9408c0,0.12773 -0.04687,0.23673 -0.1406,0.327c-0.09207,0.08867 -0.20187,0.133 -0.3294,0.133h-1.93995v-0.1h0.1v1.94c0,0.12747 -0.04432,0.23723 -0.13297,0.3293c-0.09029,0.0938 -0.1993,0.1407 -0.32703,0.1407h-0.81c-0.12774,0 -0.23675,-0.0469 -0.32703,-0.1407c-0.08865,-0.09207 -0.13297,-0.20183 -0.13297,-0.3293v-1.94h0.1v0.1h-1.94c-0.12753,0 -0.23732,-0.04433 -0.32937,-0.133c-0.09375,-0.09027 -0.14063,-0.19927 -0.14063,-0.327v-0.04c0,-0.12773 0.04688,-0.23677 0.14063,-0.3271c0.09205,-0.0886 0.20184,-0.1329 0.32937,-0.1329h1.94v0.1h-0.1v-1.54003h0.1v0.1h-1.94c-0.13261,0 -0.2441,-0.04518 -0.33446,-0.13554c-0.09036,-0.09036 -0.13554,-0.20185 -0.13554,-0.33446v-0.03c0,-0.13261 0.04518,-0.2441 0.13554,-0.33446c0.09036,-0.09036 0.20185,-0.13554 0.33446,-0.13554h1.94v0.1l-0.07524,0.06587l-2.17876,-2.48861c-0.12941,-0.14235 -0.15435,-0.30254 -0.0748,-0.48056c0.07944,-0.1778 0.21571,-0.2667 0.4088,-0.2667h0.6c0.14025,0 0.25533,0.05138 0.34525,0.15415l1.53973,1.75968c0.05509,0.06245 0.12177,0.09367 0.20002,0.09367c0.07825,0 0.14483,-0.03112 0.19974,-0.09335l1.54001,-1.76c0.08993,-0.10277 0.205,-0.15415 0.3452,-0.15415h0.6v0.1l-0.0032,-0.09995c0.1986,-0.00641 0.33873,0.07971 0.4204,0.25835c0.08093,0.17681 0.0569,0.33935 -0.0721,0.48764l-2.18996,2.49l-0.07509,-0.06604v-0.1h1.93995c0.13267,0 0.24417,0.04518 0.3345,0.13554c0.09033,0.09035 0.1355,0.20184 0.1355,0.33446v0.03c0,0.13261 -0.04517,0.2441 -0.1355,0.33446c-0.09033,0.09036 -0.20183,0.13554 -0.3345,0.13554h-1.93995v-0.1h0.1v1.54003h-0.1v-0.1h1.93995c0.12753,0 0.23733,0.0443 0.3294,0.1329c0.09373,0.09033 0.1406,0.19937 0.1406,0.3271z">
                </path>
                <path id="形状" fill-rule="evenodd" style="fill:#FFFFFF" opacity="1"
                    d="M9,18c-4.97,0 -9,-4.03 -9,-9c0,-4.97 4.03,-9 9,-9c4.97,0 9,4.03 9,9c0,4.97 -4.03,9 -9,9zM16.3175,8.9975c0,-4.04 -3.28,-7.31 -7.32,-7.31c-4.04,0 -7.31,3.27 -7.31,7.31c0,4.04 3.27,7.32 7.31,7.32c4.04,0 7.32,-3.28 7.32,-7.32z">
                </path>
            </g>
        </g>
    </g>
    <defs>
        <filter id="filter_0" x="-4" y="-2" width="40" height="44" filterUnits="userSpaceOnUse"
            color-interpolation-filters="sRGB">
            <feFlood flood-opacity="0" result="feFloodId" />
            <feColorMatrix in="SourceAlpha" type="matrix" values="0 0 0 0 0 0 0 0 0 0 0 0 0 0 0 0 0 0 127 0"
                result="hardAlpha" />

            <feOffset dx="0" dy="2" />
            <feComposite in2="hardAlpha" operator="out" />
            <feGaussianBlur stdDeviation="2" />
            <feColorMatrix type="matrix" values="0 0 0 0 0 0 0 0 0 0 0 0 0 0 0 0 0 0 0.25 0" />
            <feBlend mode="normal" in2="filter_feFlood" result="filter_feFlood_1" />
            <feBlend mode="normal" in="SourceGraphic" in2="filter_0" result="shape" />
        </filter>
    </defs>
</svg>