<svg xmlns="http://www.w3.org/2000/svg" xmlns:xlink="http://www.w3.org/1999/xlink" width="32" height="32" viewBox="0 0 32 32" fill="none"><g opacity="1"  transform="translate(0 0)  rotate(0)"><path id="Rectangle" fill-rule="evenodd" style="fill:#8289F5" opacity="1" d="M10 32L22 32C27.52 32 32 27.52 32 22L32 10C32 4.48 27.52 0 22 0L10 0C4.48 0 0 4.48 0 10L0 22C0 27.52 4.48 32 10 32Z"></path><g opacity="1"  transform="translate(8 9)  rotate(0)"><path  id="Path" style="fill:#FFFFFF; opacity:1;" d="M12.96,10.8233c0.7585,0 1.3733,-0.6148 1.3733,-1.3733v-6.41c0,-0.75847 -0.6148,-1.37334 -1.3733,-1.37334h-9.92c-0.75847,0 -1.37334,0.61487 -1.37334,1.37334v10.61c0,-0.14693 -0.07256,-0.24943 -0.21767,-0.3075c-0.01476,-0.00613 -0.04776,-0.0092 -0.09899,-0.0092c-0.09608,0 -0.18479,0.0423 -0.25138,0.1115l2.62103,-2.6215zM12.96,14.1567h-8.55v-1.6667l1.17851,1.1785l-2.08713,2.0867c-0.56186,0.5843 -1.34074,0.9115 -2.15138,0.9115c-0.38838,0 -0.76804,-0.0764 -1.13899,-0.2292c-0.56924,-0.22773 -1.02517,-0.5971 -1.36779,-1.1081c-0.33992,-0.50693 -0.50988,-1.06673 -0.50988,-1.6794v-10.61c0,-2.59942 2.10724,-4.70666 4.70666,-4.70666h9.92c2.5994,0 4.7067,2.10724 4.7067,4.70666v6.41c0,2.5994 -2.1073,4.7067 -4.7067,4.7067z"></path><path id="Rectangle" fill-rule="evenodd" style="fill:#FFFFFF" opacity="1" d="M4.43554 5.28942L10.6755 5.28942C11.1655 5.28942 11.5555 4.89942 11.5555 4.40942L11.5555 4.40942C11.5555 3.91942 11.1655 3.52942 10.6755 3.52942L4.43554 3.52942C3.94554 3.52942 3.55554 3.91942 3.55554 4.40942L3.55554 4.40942C3.55554 4.89942 3.94554 5.28942 4.43554 5.28942Z"></path><path id="Rectangle" fill-rule="evenodd" style="fill:#FFFFFF" opacity="1" d="M4.43554 8.81884L6.22554 8.81884C6.45554 8.81884 6.68554 8.72884 6.85554 8.56884C7.02554 8.39884 7.11554 8.16884 7.11554 7.93884L7.11554 7.93884C7.11554 7.70884 7.02554 7.47884 6.85554 7.30884C6.68554 7.14884 6.45554 7.05884 6.22554 7.05884L4.43554 7.05884C3.94554 7.05884 3.55554 7.44884 3.55554 7.93884L3.55554 7.93884C3.55554 8.42884 3.94554 8.81884 4.43554 8.81884Z"></path></g></g></svg>