<svg xmlns="http://www.w3.org/2000/svg" xmlns:xlink="http://www.w3.org/1999/xlink" width="128" height="128"
    viewBox="0 0 128 128" fill="none">
    <g opacity="1" transform="translate(0 0)  rotate(0)">
        <path id="Fill" fill-rule="evenodd" style="fill:rgb(22, 93, 255)" opacity="1"
            d="M0 128L128 128L128 0L0 0L0 128Z"></path>
        <g opacity="1" transform="translate(30.4599609375 28)  rotate(0)">
            <path id="path342" fill-rule="evenodd" style="fill:#EEC442" opacity="1"
                d="M41.81 13.45C41.3899 13.54 40.97 13.67 40.56 13.83C40.16 14 39.77 14.21 39.42 14.45C39.0499 14.69 38.7099 14.97 38.4 15.28C38.1 15.59 37.82 15.93 37.57 16.29C37.33 16.65 37.13 17.04 36.9599 17.44C36.79 17.84 36.67 18.26 36.58 18.69C36.5 19.11 36.45 19.55 36.45 19.99C36.45 20.42 36.5 20.85 36.58 21.28C36.67 21.71 36.79 22.13 36.9599 22.53C37.13 22.94 37.33 23.32 37.57 23.68C37.82 24.04 38.1 24.38 38.4 24.7C39.65 25.94 41.36 26.65 43.11 26.65C44.86 26.65 46.58 25.94 47.82 24.7C48.1199 24.38 48.41 24.04 48.65 23.68C48.8899 23.32 49.09 22.94 49.26 22.53C49.43 22.13 49.5499 21.71 49.6399 21.28C49.72 20.85 49.77 20.42 49.77 19.99C49.77 18.24 49.0499 16.52 47.82 15.28C46.28 13.73 43.97 13.03 41.81 13.45Z">
            </path>
            <path id="Vector" fill-rule="evenodd" style="fill:#FFFFFF" opacity="1"
                d="M0.51,59.29l10.01,-24.22c-0.27,0.73 -0.42,1.52 -0.42,2.34c0,3.68 2.98,6.66 6.65,6.66h4.46l-8.4,20.31c-1.06,2.56 -3.54,4.11 -6.15,4.11c-0.85,0 -1.71,-0.16 -2.55,-0.51c-3.39,-1.4 -5.01,-5.29 -3.6,-8.69zM10.68,34.67c-0.05,0.13 -0.11,0.26 -0.16,0.4zM10.52,35.07l0.16,-0.4c1.05,-2.31 3.37,-3.92 6.07,-3.92h9.96l-5.5,13.32h-4.46c-3.67,0 -6.65,-2.98 -6.65,-6.66c0,-0.82 0.15,-1.61 0.42,-2.34zM10.68,34.67l12.64,-30.56c1.41,-3.39 5.29,-5.01 8.69,-3.6c3.4,1.4 5.02,5.29 3.61,8.69l-8.91,21.55h-9.96c-2.7,0 -5.02,1.61 -6.07,3.92zM56.47,34.87l10.09,24.42c1.41,3.4 -0.21,7.29 -3.6,8.69c-0.84,0.35 -1.7,0.51 -2.55,0.51c-2.61,0 -5.09,-1.55 -6.15,-4.11l-8.4,-20.31h3.29c3.68,0 6.66,-2.98 6.66,-6.66c0,-3.48 -2.68,-6.34 -6.09,-6.63c2.83,-0.25 5.61,1.33 6.75,4.09zM44.16,39.96l1.7,4.11h-24.65l5.5,-13.32h22.44c0.19,0 0.38,0.01 0.57,0.03c-0.65,0.06 -1.31,0.21 -1.95,0.48c-3.4,1.41 -5.01,5.3 -3.61,8.7zM44.16,39.96c-1.4,-3.4 0.21,-7.29 3.61,-8.7c0.64,-0.27 1.3,-0.42 1.95,-0.48c3.41,0.29 6.09,3.15 6.09,6.63c0,3.68 -2.98,6.66 -6.66,6.66h-3.29z">
            </path>
        </g>
    </g>
</svg>