<svg xmlns="http://www.w3.org/2000/svg" xmlns:xlink="http://www.w3.org/1999/xlink" width="249.9199676513672" height="69.00004768371582" viewBox="0 0 249.9199676513672 69.00004768371582" fill="none"><g opacity="1"  transform="translate(0 0)  rotate(0)"><g opacity="1"  transform="translate(0 0)  rotate(0)"><g opacity="1"  transform="translate(0 0)  rotate(0)"><path id="path342" fill-rule="evenodd" style="fill:#EEC442" opacity="1" d="M52.43 26.89C52.69 26.29 52.87 25.67 53 25.02C53.13 24.38 53.2 23.72 53.2 23.08C53.2 20.45 52.13 17.86 50.27 16.01C47.96 13.68 44.5 12.62 41.24 13.26C40.61 13.39 39.99 13.59 39.37 13.84C38.77 14.09 38.18 14.39 37.66 14.77C37.1 15.12 36.59 15.54 36.13 16.01C35.67 16.47 35.26 16.98 34.89 17.52C34.53 18.06 34.22 18.65 33.97 19.25C33.71 19.85 33.53 20.48 33.4 21.12C33.27 21.76 33.2 22.42 33.2 23.08C33.2 23.72 33.27 24.38 33.4 25.02C33.53 25.67 33.71 26.29 33.97 26.89C34.22 27.51 34.53 28.08 34.89 28.62C35.26 29.16 35.67 29.68 36.13 30.15C38 32.01 40.57 33.08 43.2 33.08C45.83 33.08 48.41 32.01 50.27 30.15C50.73 29.68 51.16 29.16 51.51 28.62C51.87 28.08 52.18 27.51 52.43 26.89Z"></path><path id="Vector" fill-rule="evenodd" style="fill:#FFFFFF" opacity="1" d="M32.01,0.51c3.4,1.4 5.02,5.29 3.61,8.69l-10.53,25.48h-6.39c-3.67,0 -6.65,2.98 -6.65,6.66c0,3.68 2.98,6.66 6.65,6.66h0.88l-6.77,16.38c-1.06,2.56 -3.54,4.11 -6.15,4.11c-0.85,0 -1.71,-0.16 -2.55,-0.51c-3.39,-1.4 -5.01,-5.29 -3.6,-8.69l22.81,-55.18c1.41,-3.39 5.29,-5.01 8.69,-3.6zM18.7,34.68h6.39l-5.51,13.32h-0.88c-3.67,0 -6.65,-2.98 -6.65,-6.66c0,-3.68 2.98,-6.66 6.65,-6.66zM25.09,34.68h24.01c0.19,0 0.38,0.01 0.57,0.03c-0.65,0.06 -1.31,0.22 -1.95,0.48c-3.4,1.41 -5.01,5.3 -3.61,8.7l2.04,4.11h-11.25h-15.32zM44.11,43.89c-1.4,-3.4 0.21,-7.29 3.61,-8.7c0.64,-0.26 1.3,-0.42 1.95,-0.48c3.41,0.29 6.09,3.15 6.09,6.63c0,3.68 -2.99,6.66 -6.66,6.66h-2.95zM49.67,34.71c2.83,-0.25 5.6,1.33 6.74,4.09l10.15,20.49c1.41,3.4 -0.21,7.29 -3.6,8.69c-0.84,0.35 -1.7,0.51 -2.55,0.51c-2.61,0 -5.09,-1.55 -6.15,-4.11l-8.11,-16.38h2.95c3.67,0 6.66,-2.98 6.66,-6.66c0,-3.48 -2.68,-6.34 -6.09,-6.63z"></path></g></g><path id="文本 1" fill-rule="evenodd" style="fill:#FFFFFF" opacity="1" d="M91.92,34.5c6.48,0 10.79,4.99 10.79,4.99c4.31,4.99 4.31,12.17 4.31,12.17v11.47c0,1.5 -0.09,2.25 -0.09,2.25c-0.1,0.75 -0.56,1.67 -0.56,1.67c-0.9,1.76 -5.05,1.76 -5.05,1.76c-4.61,0 -5.32,-2.42 -5.32,-2.42c-0.39,-1.1 -0.39,-3.32 -0.39,-3.32v-11.48c0,-2.67 -1.52,-4.17 -1.52,-4.17c-1.52,-1.5 -4.09,-1.5 -4.09,-1.5c-2.56,0 -4.15,1.56 -4.15,1.56c-1.58,1.57 -1.58,4.11 -1.58,4.11v11.54c0,1.5 -0.1,2.25 -0.1,2.25c-0.1,0.75 -0.62,1.67 -0.62,1.67c-0.84,1.76 -4.99,1.76 -4.99,1.76c-4.08,0 -4.99,-1.76 -4.99,-1.76c-0.46,-0.98 -0.55,-1.73 -0.55,-1.73c-0.1,-0.75 -0.1,-2.25 -0.1,-2.25v-23.09c0,-1.43 0.1,-2.18 0.1,-2.18c0.09,-0.75 0.61,-1.67 0.61,-1.67c0.91,-1.63 5,-1.63 5,-1.63c3.95,0 4.86,1.5 4.86,1.5c0.65,1.11 0.65,2.68 0.65,2.68c0.26,-0.46 1.16,-1.31 1.16,-1.31c0.91,-0.84 1.75,-1.37 1.75,-1.37c2.21,-1.5 4.87,-1.5 4.87,-1.5zM164.66,34.63c6.49,0 10.8,4.96 10.8,4.96c4.31,4.96 4.31,12.13 4.31,12.13v11.48c0,1.5 -0.1,2.25 -0.1,2.25c-0.1,0.75 -0.61,1.73 -0.61,1.73c-0.85,1.69 -5,1.69 -5,1.69c-3.95,0 -4.92,-1.69 -4.92,-1.69c-0.52,-0.98 -0.62,-1.76 -0.62,-1.76c-0.1,-0.79 -0.1,-2.35 -0.1,-2.35v-11.41c0,-2.68 -1.49,-4.18 -1.49,-4.18c-1.49,-1.5 -3.79,-1.5 -3.79,-1.5c-2.3,0 -4.05,1.4 -4.05,1.4c-1.75,1.41 -2.01,3.17 -2.01,3.17v12.65c0,1.5 -0.1,2.25 -0.1,2.25c-0.1,0.75 -0.62,1.73 -0.62,1.73c-0.84,1.69 -4.99,1.69 -4.99,1.69c-4.08,0 -4.99,-1.76 -4.99,-1.76c-0.46,-0.98 -0.55,-1.69 -0.55,-1.69c-0.1,-0.72 -0.1,-2.29 -0.1,-2.29v-39c0,-1.5 0.1,-2.25 0.1,-2.25c0.09,-0.75 0.55,-1.66 0.55,-1.66c0.91,-1.76 5.06,-1.76 5.06,-1.76c4.08,0 4.92,1.76 4.92,1.76c0.52,0.98 0.62,1.73 0.62,1.73c0.1,0.75 0.1,2.25 0.1,2.25v14.41c3.24,-3.98 7.58,-3.98 7.58,-3.98zM247.07,34.89l0.61,0.2c0.62,0.2 1.43,1.14 1.43,1.14c0.81,0.95 0.81,3.03 0.81,3.03c0,2.09 -1.23,4.57 -1.23,4.57c-1.23,2.48 -3.57,2.48 -3.57,2.48c-1.16,0 -2.23,-0.52 -2.23,-0.52c-1.07,-0.53 -2.82,-0.53 -2.82,-0.53c-1.76,0 -3.28,1.24 -3.28,1.24c-1.52,1.24 -1.52,3 -1.52,3v13.7c0,1.5 -0.1,2.25 -0.1,2.25c-0.1,0.75 -0.62,1.73 -0.62,1.73c-0.97,1.69 -5.05,1.69 -5.05,1.69c-3.12,0 -4.48,-1.11 -4.48,-1.11c-1.03,-0.91 -1.16,-2.8 -1.16,-2.8c0,-0.65 0,-1.89 0,-1.89v-22.89c0,-1.5 0.09,-2.25 0.09,-2.25c0.1,-0.75 0.55,-1.67 0.55,-1.67c0.91,-1.76 5.06,-1.76 5.06,-1.76c3.89,0 4.86,1.5 4.86,1.5c0.72,1.05 0.72,2.16 0.72,2.16c0.32,-0.46 0.94,-1.11 0.94,-1.11c0.61,-0.66 2.62,-1.76 2.62,-1.76c2.01,-1.11 3.54,-1.11 3.54,-1.11c1.52,0 2.56,0.16 2.56,0.16c1.04,0.16 2.27,0.55 2.27,0.55z"></path><path id="文本 1" fill-rule="evenodd" style="fill:#EEC442" opacity="1" d="M186.78 60.79C186.78 60.79 189.56 64.85 193.62 66.92C193.62 66.92 197.68 69 202 69C202 69 206.32 69 210.35 67.05C210.35 67.05 214.37 65.1 217.19 60.98C217.19 60.98 220 56.86 220 51.56C220 51.56 220 43.9 214.57 38.95C214.57 38.95 209.13 34 202.07 34C202.07 34 195 34 189.5 38.98C189.5 38.98 184 43.96 184 51.63C184 51.63 184 56.74 186.78 60.79Z"></path><path id="文本 1" fill-rule="evenodd" style="fill:#EEC442" opacity="1" d="M112.7 61.03C112.7 61.03 115.41 64.97 119.35 66.98C119.35 66.98 123.3 69 127.5 69C127.5 69 131.7 69 135.61 67.11C135.61 67.11 139.53 65.22 142.26 61.21C142.26 61.21 127.5 57.27 127.5 52.12C127.5 52.12 145 44.62 139.72 39.81C139.72 39.81 134.44 35 127.56 35C127.56 35 120.69 35 115.35 39.84C115.35 39.84 110 44.68 110 52.12C110 52.12 110 57.09 112.7 61.03Z"></path></g></svg>