<svg xmlns="http://www.w3.org/2000/svg" viewBox="0 0 1024 1024" version="1.1">
    <path d="M0 0m333 0l357.9 0q333 0 333 333l0 357.9q0 333-333 333l-357.9 0q-333 0-333-333l0-357.9q0-333 333-333Z"
        fill="#F96C17" p-id="1245"></path>
    <path
        d="M609.9 215l211.9 213.6a56.7 56.7 0 0 1 0 79.9L521.2 811.5h-110.6l-196.2-197.8a56.7 56.7 0 0 1 0-79.9l316.3-318.8a55.6 55.6 0 0 1 79.3 0z m-42 118.6l-1.4 0.1a19.4 19.4 0 0 0-17.9 19.4V528.1l-183.2-4.4-1.4 0a19.4 19.4 0 0 0-18.4 19 19.4 19.4 0 0 0 18.9 19.9l203 4.9 1.4-0a19.4 19.4 0 0 0 18.4-19.5V353.1l-0-1.5a19.4 19.4 0 0 0-19.3-18z"
        fill="#FFFFFF" p-id="1246"></path>
</svg>