<svg xmlns="http://www.w3.org/2000/svg" viewBox="0 0 1024 1024" version="1.1"><path d="M0 0m349.1 0l325.8 0q349.1 0 349.1 349.1l0 325.8q0 349.1-349.1 349.1l-325.8 0q-349.1 0-349.1-349.1l0-325.8q0-349.1 349.1-349.1Z" fill="#62A8FC" p-id="748"></path><path d="M380.5 271.9a75.9 75.9 0 0 0-0.4 7.6c0 35.3 29 64.2 64.5 64.2H575.2c35.5 0 64.5-28.9 64.5-64.2 0-2.6-0.1-5.1-0.4-7.6h99.1c12.7 0 25.3 12.7 25.4 25.3v457c0 12.7-12.7 25.4-25.3 25.4h-457.1C268.7 779.6 256 766.9 256 754.2V297.3c0-12.7 12.7-25.4 25.3-25.4z m233.9 292H393.1c-14.1 0-25.6 11.5-25.6 25.4 0 14 11.6 25.4 25.6 25.4h221.3c14.1 0 25.6-11.5 25.6-25.4 0-13.9-11.5-25.3-25.6-25.4z m0-139.6H393.1c-14.1 0-25.6 11.5-25.6 25.4 0 14 11.6 25.4 25.6 25.4h221.3c14.1 0 25.6-11.5 25.6-25.4a25.5 25.5 0 0 0-25.6-25.4zM570.1 221.1a41.5 41.5 0 0 1 41.4 41.4v6.1a41.5 41.5 0 0 1-41.4 41.4H449.7a41.5 41.5 0 0 1-41.4-41.4v-6.1A41.5 41.5 0 0 1 449.7 221.1h120.4z" fill="#FFFFFF" p-id="749"></path></svg>