<svg xmlns="http://www.w3.org/2000/svg" viewBox="0 0 1024 1024" version="1.1"><path d="M0 0m349.1 0l325.8 0q349.1 0 349.1 349.1l0 325.8q0 349.1-349.1 349.1l-325.8 0q-349.1 0-349.1-349.1l0-325.8q0-349.1 349.1-349.1Z" fill="#F7A647" p-id="943"></path><path d="M512 446.4a25.6 25.6 0 0 1 25.6 25.6v88h198.4a32 32 0 0 1 32 32v143.2a32 32 0 0 1-32 32h-448a32 32 0 0 1-32-32V592a32 32 0 0 1 32-32H486.4v-88a25.6 25.6 0 0 1 25.6-25.6zM334.9 638a25.6 25.6 0 1 0 0 51.2 25.6 25.6 0 0 0 0-51.2z m77.6 0a25.6 25.6 0 1 0 0 51.2 25.6 25.6 0 0 0 0-51.2z m98.7-303.6a112 112 0 0 1 112 112 25.6 25.6 0 1 1-51.2 0 60.8 60.8 0 0 0-121.6 0 25.6 25.6 0 1 1-51.2 0 112 112 0 0 1 112-112z m95.2-52.9a190.4 190.4 0 0 1 95.2 164.9 25.6 25.6 0 1 1-51.2 0 139.2 139.2 0 1 0-278.4 0 25.6 25.6 0 1 1-51.2 0 190.4 190.4 0 0 1 285.6-164.9z" fill="#FFFFFF" p-id="944"></path></svg>