<svg xmlns="http://www.w3.org/2000/svg" viewBox="0 0 1024 1024" version="1.1">
    <path
        d="M0 0m349.1 0l325.8 0q349.1 0 349.1 349.1l0 325.8q0 349.1-349.1 349.1l-325.8 0q-349.1 0-349.1-349.1l0-325.8q0-349.1 349.1-349.1Z"
        fill="#3271FD" p-id="580"></path>
    <path
        d="M718.7 232.7a22.3 22.3 0 0 1 22.3 20.7l0.1 1.7 0 328.1a61.5 61.5 0 0 1 0 114.5l-0 71.2a22.3 22.3 0 0 1-44.6 1.7l-0.1-1.7v-71.2a61.5 61.5 0 0 1 0-114.5v-328.1c0-12.3 10-22.3 22.3-22.3z m-424.5 0a22.3 22.3 0 0 1 22.3 20.7l0.1 1.7v328.1a61.5 61.5 0 0 1 0 114.5v71.2a22.3 22.3 0 0 1-44.6 1.7l-0.1-1.7-0-71.2a61.5 61.5 0 0 1 0-114.5l0-328.1c0-12.3 10-22.3 22.3-22.3z m212.2 0a22.3 22.3 0 0 1 22.3 20.7l0.1 1.7v81.2a83.8 83.8 0 0 1 0 161.5v271.1a22.3 22.3 0 0 1-44.6 1.7l-0.1-1.7v-271.1a83.8 83.8 0 0 1 0-161.5v-81.2c0-12.3 10-22.3 22.3-22.3z"
        fill="#FFFFFF" p-id="581"></path>
</svg>