<svg xmlns="http://www.w3.org/2000/svg" viewBox="0 0 1024 1024" version="1.1"><path d="M0 0m372.4 0l279.3 0q372.4 0 372.4 372.4l0 279.3q0 372.4-372.4 372.4l-279.3 0q-372.4 0-372.4-372.4l0-279.3q0-372.4 372.4-372.4Z" fill="#F7A647" p-id="1341"></path><path d="M232.7 303.9C232.7 290.3 243.8 279.3 257.3 279.3h148.6c5.6 0 11 2.3 14.8 6.3l50.9 52.8c1.2 1.2 2.2 2.6 3 4h259.9c31.1 0 56.7 25.5 56.7 56.6V688.1c0 31.2-25.5 56.7-56.7 56.7H289.4C258.2 744.7 232.7 719.2 232.7 688.1V303.9zM726.7 556.2h-239.8a10.2 10.2 0 0 0-10.2 10.2v25.4c0 5.6 4.6 10.2 10.2 10.2h239.8a10.2 10.2 0 0 0 10.2-10.2v-25.4a10.2 10.2 0 0 0-10.2-10.2z m-0.1-87.7h-239.8a10.2 10.2 0 0 0-10.2 10.2h-0.1v25.4c0 5.6 4.6 10.2 10.2 10.2h239.9a10.2 10.2 0 0 0 10.2-10.2V478.7a10.2 10.2 0 0 0-10.2-10.2z" fill="#FFFFFF" p-id="1342"></path></svg>