<svg xmlns="http://www.w3.org/2000/svg" viewBox="0 0 1024 1024" version="1.1"><path d="M0 0m349.1 0l325.8 0q349.1 0 349.1 349.1l0 325.8q0 349.1-349.1 349.1l-325.8 0q-349.1 0-349.1-349.1l0-325.8q0-349.1 349.1-349.1Z" fill="#62A8FC" p-id="1173"></path><path d="M751.4 631.7A39.9 39.9 0 0 1 791.3 671.6v79.8A39.9 39.9 0 0 1 751.4 791.3H272.6A39.9 39.9 0 0 1 232.7 751.4v-79.8a39.9 39.9 0 0 1 39.9-39.9H751.4z m-19.9 79.8H571.8a19.9 19.9 0 0 0-3.6 39.6l3.6 0.3h159.6a19.9 19.9 0 0 0 0-39.9z m19.9-279.3A39.9 39.9 0 0 1 791.3 472.1v79.8a39.9 39.9 0 0 1-39.9 39.9H272.6A39.9 39.9 0 0 1 232.7 551.9V472.1a39.9 39.9 0 0 1 39.9-39.9H751.4z m-418.9 79.8h-39.9a19.9 19.9 0 0 0-3.6 39.6l3.6 0.3h39.9a19.9 19.9 0 1 0 0-39.9z m199.5 0H412.3a19.9 19.9 0 0 0-3.6 39.6l3.6 0.3h119.7a19.9 19.9 0 1 0 0-39.9z m219.4-279.3A39.9 39.9 0 0 1 791.3 272.6v79.8a39.9 39.9 0 0 1-39.9 39.9H272.6A39.9 39.9 0 0 1 232.7 352.4v-79.8A39.9 39.9 0 0 1 272.6 232.7H751.4z m-458.8 79.8a19.9 19.9 0 1 0 0 39.9 19.9 19.9 0 0 0 0-39.9z m79.8 0a19.9 19.9 0 1 0 0 39.9 19.9 19.9 0 0 0 0-39.9z" fill="#FFFFFF" p-id="1174"></path></svg>