<svg xmlns="http://www.w3.org/2000/svg" viewBox="0 0 1024 1024" version="1.1"><path d="M0 0m349.1 0l325.8 0q349.1 0 349.1 349.1l0 325.8q0 349.1-349.1 349.1l-325.8 0q-349.1 0-349.1-349.1l0-325.8q0-349.1 349.1-349.1Z" fill="#52B852" p-id="1305"></path><path d="M269.3 581.2c-3.6-33.3-2.3-65.9 11.5-102 16.3-43.9 46.7-76.2 85.7-102 59.1-39.9 124.7-63.2 192.6-78.7A727.5 727.5 0 0 1 726.6 279.3c12.6 0 22.7 2.4 27.7 15.4 5 13 0 21.8-8.8 30.9-27.7 29.7-37.8 67.2-46.7 105.9-11.3 46.3-22.7 94.1-35.2 140.7-3.8 15.4-12.7 29.6-18.9 43.9-37.8 72.3-99.5 105.9-176.3 115-36.6 3.9-73 1.2-107.2-14.2a219.9 219.9 0 0 1-32.8-19.4c-7.7 19.4-15.1 38.7-26.6 41.2a24 24 0 0 1-26.6-14.2c-1.2-3.9-3.8-10.3-2.4-14.2 5-29.7 12.7-43.9 17.7-52.9 30.4-61.7 69.2-101.2 116.5-148.3 17-16.6 58.6-50.7 95.2-69.8-61.5 16.9-124 49.5-187.4 106.3-25.6 23.1-40 40.7-43.1 48.8l-2.7-13h-0z" fill="#FFFFFF" p-id="1306"></path></svg>