<svg xmlns="http://www.w3.org/2000/svg" viewBox="0 0 1024 1024" version="1.1">
    <path
        d="M0 0m349.2 0l325.6 0q349.2 0 349.2 349.2l0 325.6q0 349.2-349.2 349.2l-325.6 0q-349.2 0-349.2-349.2l0-325.6q0-349.2 349.2-349.2Z"
        fill="#52B852" p-id="664"></path>
    <path
        d="M9,18c-4.97,0 -9,-4.03 -9,-9c0,-4.97 4.03,-9 9,-9c4.97,0 9,4.03 9,9c0,4.97 -4.03,9 -9,9zM16.3175,8.9975c0,-4.04 -3.28,-7.31 -7.32,-7.31c-4.04,0 -7.31,3.27 -7.31,7.31c0,4.04 3.27,7.32 7.31,7.32c4.04,0 7.32,-3.28 7.32,-7.32z"
        fill="#FFFFFF" p-id="665">
    </path>
</svg>