<svg xmlns="http://www.w3.org/2000/svg" viewBox="0 0 1024 1024" version="1.1"><path d="M0 0m349.1 0l325.8 0q349.1 0 349.1 349.1l0 325.8q0 349.1-349.1 349.1l-325.8 0q-349.1 0-349.1-349.1l0-325.8q0-349.1 349.1-349.1Z" fill="#F96C17" p-id="797"></path><path d="M527.2 338.6l1.7 1.4 186.5 161.7h0.1a56.9 56.9 0 0 1 19.6 40.1l0.1 2.9v177.9c0 24.5-19.2 44.4-43.5 45.6l-2.4 0.1h-365.6a45.8 45.8 0 0 1-45.8-43.3l-0.1-2.4V544.7a56.9 56.9 0 0 1 17.5-41.1l2.2-2 186.3-161.7a34.3 34.3 0 0 1 43.3-1.4z m-21.1 197.9c-63 0-114.2 47.6-114.2 81.6 0 33.4 49.3 79.6 110.7 81.2l3.4 0c63.4 0 114.5-48.3 114.5-81.3 0-33-51.5-81.6-114.5-81.6z m-43.3 49.2a53.5 53.5 0 0 1 52.7-27.3h0.1a50.4 50.4 0 0 1 47.4 53.1c0 1.9-0.3 3.8-0.3 5.7a53.3 53.3 0 0 1-38.2 45.4 53.6 53.6 0 0 1-56.6-17.9 53.2 53.2 0 0 1-5.1-59z m77-352.3l81 70.6v-37.1c0-12.6 10.2-22.8 22.9-22.9h22.8c12.7 0 22.9 10.2 22.9 22.9v96.5l128.8 111.9c7.6 6.6 10.3 17.2 6.8 26.6a23.6 23.6 0 0 1-22.3 15.7h-13.1a57.1 57.1 0 0 1-37.4-14L543.9 322.8a57.3 57.3 0 0 0-75.1 0L260.5 503.5a57.3 57.3 0 0 1-37.5 14h-13.1a23.6 23.6 0 0 1-22.3-15.7 24.1 24.1 0 0 1 6.9-26.6l278.6-241.5a51 51 0 0 1 66.6-0.3z" fill="#FFFFFF" p-id="798"></path></svg>