<svg xmlns="http://www.w3.org/2000/svg" viewBox="0 0 1024 1024" version="1.1">
    <path
        d="M0 0m372.4 0l279.3 0q372.4 0 372.4 372.4l0 279.3q0 372.4-372.4 372.4l-279.3 0q-372.4 0-372.4-372.4l0-279.3q0-372.4 372.4-372.4Z"
        fill="#3271FD" p-id="1124"></path>
    <path
        d="M545.5 488.7c105 13.2 189.3 86.1 220.8 181.9 2.7 8.3 5.2 18.9 7.3 31.7A46.5 46.5 0 0 1 727.6 756.4H296.2a46.5 46.5 0 0 1-45.9-54c1.8-10.9 3.8-20 6.1-27.3C286.7 577 372 502.2 478.5 488.7L512 555.6zM512 555.6l-33.5 100.4L512 689.5l33.5-33.5L512 555.6z m-66.9-316.6A133.8 133.8 0 0 1 645.8 354.9C645.8 428.8 585.9 488.7 512 488.7s-133.8-59.9-133.8-133.8a133.8 133.8 0 0 1 66.9-115.9z"
        fill="#FFFFFF" p-id="1125"></path>
</svg>