<svg xmlns="http://www.w3.org/2000/svg" viewBox="0 0 1024 1024" version="1.1">
    <path
        d="M0 0m349.2 0l325.6 0q349.2 0 349.2 349.2l0 325.6q0 349.2-349.2 349.2l-325.6 0q-349.2 0-349.2-349.2l0-325.6q0-349.2 349.2-349.2Z"
        fill="#52B852" p-id="664"></path>
    <path
        d="M649 536.2C714.5 536.2 768 590.8 768 657.6c0 66.7-53.5 121.3-119 121.3-65.4 0-119-54.6-119-121.3 0-66.7 53.5-121.3 119-121.3zM667.6 256c21.5 0.1 38.8 17.8 38.9 39.7v222.1c-17.8-9.1-38.7-12.1-59.5-12.1-83.3 0-148.7 66.7-148.7 151.6 0 33.4 11.9 66.7 29.7 91H294.9c-21.5-0.1-38.8-17.8-38.9-39.7v-412.9c0.1-21.9 17.5-39.6 38.9-39.7h372.7z m-2.3 337.4l-1.6 1.8c-4 4-9.3 6.4-15.2 6.4a21.3 21.3 0 0 1-15.2-6.5l-1.5-1.7c-2.1-2.4-6.1-3.4-9-2.3l-0.2 0.1c-0.7 0.3-3.3 1.5-8.2 4.5l-0.5 0.3c-5.5 3.5-7.5 5.2-7.5 5.2-2.3 2.1-3.5 6.3-2.6 9.4l0.6 2.3a25.1 25.1 0 0 1-2.3 17.3c-2.9 5.5-7.6 9.2-12.9 10.9l-2.1 0.5c-2.9 0.7-5.8 3.9-6.4 7.1 0 0-0.5 2.8-0.5 9.8v0.3c0 7.3 0.5 10.1 0.5 10.1 0.5 3.2 3.4 6.4 6.4 7.1l2.1 0.5c5.3 1.7 10 5.4 12.9 10.9a25 25 0 0 1 2.3 17.4l-0.6 2.2c-0.9 3.1 0.3 7.3 2.6 9.5 0 0 2 1.8 7.7 5.4l0.3 0.2c5.2 3.2 7.8 4.3 8.3 4.6l0 0 0.1 0c2.9 1.1 6.9 0.1 9-2.3l1.5-1.7c4-4 9.3-6.5 15.2-6.5 5.9 0 11.3 2.5 15.3 6.5l1.5 1.7c2.1 2.4 6.1 3.4 9 2.3 0 0 2.6-1 8.5-4.6 5.9-3.6 7.9-5.5 7.91-5.5 2.3-2.1 3.5-6.4 2.6-9.5l-0.6-2.3a25 25 0 0 1 2.4-17.3c2.9-5.5 7.6-9.2 12.9-10.9l2.1-0.5c2.9-0.7 5.8-3.9 6.4-7.1 0 0 0.5-2.9 0.5-10.1-0-6.7-0.4-9.7-0.5-10.1v-0.1c-0.5-3.2-3.4-6.4-6.4-7.1l-2.2-0.5a22.4 22.4 0 0 1-12.8-10.8 25 25 0 0 1-2.3-17.4l0.7-2.2c0.9-3.1-0.3-7.4-2.6-9.5 0 0-2.1-1.9-8-5.5-5.9-3.6-8.4-4.6-8.4-4.6-2.9-1.1-6.9-0.1-9 2.3z m-16.7 31.4a34.1 34.1 0 0 1 34.1 34.1 34.2 34.2 0 0 1-34.1 34.1 34.1 34.1 0 1 1 0-68.3z m-36.3-289.6h-57.6c-11.5 0-19.2 7.3-19.2 18.3s7.7 18.3 19.2 18.3h11.5l-55.7 53-69.1-65.8a21.3 21.3 0 0 0-13.4-5.5c-5.8 0-9.6 1.8-15.4 5.5l-80.6 76.8c-7.7 7.3-7.7 18.3 0 25.6 7.7 7.3 19.2 7.3 26.9 0l69.1-64 67.2 64c3.8 3.7 9.6 5.5 15.4 5.5 5.8 0 9.6-1.8 15.4-5.5l67.2-64v11c0 11 7.7 18.3 19.2 18.3 11.5 0 19.2-9.1 19.2-18.3v-54.9c0-11-9.6-18.3-19.2-18.3z"
        fill="#FFFFFF" p-id="665"></path>
</svg>