<svg xmlns="http://www.w3.org/2000/svg" viewBox="0 0 1024 1024" version="1.1"><path d="M0 0m349.1 0l325.8 0q349.1 0 349.1 349.1l0 325.8q0 349.1-349.1 349.1l-325.8 0q-349.1 0-349.1-349.1l0-325.8q0-349.1 349.1-349.1Z" fill="#F7A647" p-id="1039"></path><path d="M588.9 244.4a64.8 64.8 0 0 1 64.9 64.7v417.4A64.8 64.8 0 0 1 588.9 791.3H297.6A64.8 64.8 0 0 1 232.7 726.5V309.1A64.8 64.8 0 0 1 297.6 244.4z m160 162.3A42.2 42.2 0 0 1 791.3 448.9v294.1a42.3 42.3 0 0 1-42.3 42.2h-81c2.2-0.1 29.6-2.3 29.6-56.3V406.7z m-179.5 227.7H331.2a24.9 24.9 0 0 0-24.9 24.9c0 13.7 11.2 24.9 24.9 24.9h238.2a24.9 24.9 0 0 0 24.9-24.9c0-13.8-11.2-24.9-24.9-24.9z m-0.5-113H331.7a25.4 25.4 0 0 0-25.4 25.4c0 14 11.4 25.4 25.4 25.4h237.2a25.4 25.4 0 0 0 25.4-25.4c0-14-11.4-25.4-25.4-25.4z m-184.9-145.3h-56.8a20.9 20.9 0 0 0-20.9 20.9v50.6a20.9 20.9 0 0 0 20.9 20.9h56.8a20.9 20.9 0 0 0 20.9-20.9v-50.6a20.9 20.9 0 0 0-20.9-20.9z" fill="#FFFFFF" p-id="1040"></path></svg>