<svg xmlns="http://www.w3.org/2000/svg" viewBox="0 0 1035 1024" version="1.1"><path d="M8.3 0m349.1 0l325.8 0q349.1 0 349.1 349.1l0 325.8q0 349.1-349.1 349.1l-325.8 0q-349.1 0-349.1-349.1l0-325.8q0-349.1 349.1-349.1Z" fill="#F7A647" p-id="918"></path><path d="M753 232.7a46.5 46.5 0 0 1 46.5 46.5v366.9a46.5 46.5 0 0 1-46.5 46.5l-114.7-0-78 78a46.5 46.5 0 0 1-65.8 0l-78-78H287.6a46.5 46.5 0 0 1-46.5-46.5V279.3a46.5 46.5 0 0 1 46.5-46.5h465.5z m-49.3 258.6h-366.9a30.1 30.1 0 0 0-30.1 30.1v0.5a30.1 30.1 0 0 0 30.1 30.1h366.9a30.1 30.1 0 0 0 30.1-30.1v-0.5a30.1 30.1 0 0 0-30.1-30.1zM495.2 359.9H336.9a30.1 30.1 0 0 0-30.1 30.1v0.5a30.1 30.1 0 0 0 30.1 30.1h158.3a30.1 30.1 0 0 0 30.1-30.1v-0.5a30.1 30.1 0 0 0-30.1-30.1z" fill="#FFFFFF" p-id="919"></path></svg>