<svg xmlns="http://www.w3.org/2000/svg" viewBox="0 0 1024 1024" version="1.1"><path d="M0 0m349.2 0l325.6 0q349.2 0 349.2 349.2l0 325.6q0 349.2-349.2 349.2l-325.6 0q-349.2 0-349.2-349.2l0-325.6q0-349.2 349.2-349.2Z" fill="#3271FD" p-id="869"></path><path d="M442.2 298.3c9.7 0 18.1 3.4 25 10.1 6.9 6.7 10.4 15 10.4 24.7v140.6c0 9.8-3.5 18.1-10.4 25a34 34 0 0 1-25 10.4H301.9a33.1 33.1 0 0 1-24.7-10.4A34.6 34.6 0 0 1 267.1 473.7V333.1c0-9.8 3.4-18 10.1-24.7 6.7-6.7 15-10.1 24.7-10.1h140.3zM442.2 579.4c9.7 0 18.1 3.4 25 10.1 6.9 6.7 10.4 15 10.4 24.7v141.1c0 9.7-3.5 18-10.4 24.7-6.9 6.7-15.2 10.1-25 10.1H301.9c-9.7 0-18-3.4-24.7-10.1C270.5 773.4 267.1 765.2 267.1 755.4V614.3c0-9.7 3.4-18 10.1-24.7 6.7-6.7 15-10.1 24.7-10.1h140.3zM723.3 579.4c9.7 0 18 3.4 24.7 10.1 6.7 6.7 10.1 15 10.1 24.7v141.1c0 9.7-3.4 18-10.1 24.7-6.7 6.7-15 10.1-24.7 10.1H583a34.5 34.5 0 0 1-25-10.1 33.2 33.2 0 0 1-10.4-24.7V614.3c0-9.7 3.5-18 10.4-24.7a34.5 34.5 0 0 1 25-10.1h140.3z" fill="#FFFFFF" p-id="870"></path><path d="M667.8 243.3m23.6 23.6l110.2 110.2q23.6 23.6 0 47.2l-110.2 110.2q-23.6 23.6-47.2 0l-110.2-110.2q-23.6-23.6 0-47.2l110.2-110.2q23.6-23.6 47.2 0Z" fill="#FFFFFF" fill-opacity=".7" p-id="871"></path></svg>